<svg id="Layer_1" data-name="Layer 1" xmlns="http://www.w3.org/2000/svg" viewBox="0 0 96 13.04"><defs><style>.cls-1{fill:#676C72;}.cls-2{fill:#ea4334;}.cls-2,.cls-3,.cls-4,.cls-5{fillRule:evenodd;}.cls-3{fill:#4285f4;}.cls-4{fill:#fcbc05;}.cls-5{fill:#0d9d58;}</style></defs><path class="cls-1" d="M30.9,8.05a3.32,3.32,0,0,1-.85,2.4,3.22,3.22,0,0,1-2.54,1.06A3.42,3.42,0,0,1,25,10.43a3.68,3.68,0,0,1-1-2.67,3.79,3.79,0,0,1,1-2.68A3.37,3.37,0,0,1,27.51,4,3.83,3.83,0,0,1,29,4.29a3,3,0,0,1,1.11.79l-.63.66a2,2,0,0,0-.84-.64,2.63,2.63,0,0,0-1.09-.23,2.52,2.52,0,0,0-1.9.81,2.89,2.89,0,0,0-.78,2.06,2.89,2.89,0,0,0,.78,2.06,2.55,2.55,0,0,0,1.9.81,2.47,2.47,0,0,0,1.72-.6A2.44,2.44,0,0,0,30,8.35H27.51V7.49h3.35C30.88,7.7,30.9,7.87,30.9,8.05Z" transform="translate(0 -1.32)"/><path class="cls-1" d="M32,11.36V4.18H34.1a3.28,3.28,0,0,1,2.53,1,3.51,3.51,0,0,1,1,2.6,3.53,3.53,0,0,1-1,2.6,3.39,3.39,0,0,1-2.53,1Zm.89-6.3v5.41H34.1A2.53,2.53,0,0,0,36,9.76a2.71,2.71,0,0,0,.71-2,2.74,2.74,0,0,0-.71-2,2.51,2.51,0,0,0-1.9-.73Z" transform="translate(0 -1.32)"/><path class="cls-1" d="M45.29,8.05a3.32,3.32,0,0,1-.85,2.4,3.22,3.22,0,0,1-2.54,1.06,3.42,3.42,0,0,1-2.55-1.08,3.69,3.69,0,0,1-1-2.67,3.8,3.8,0,0,1,1-2.68A3.36,3.36,0,0,1,41.9,4a3.74,3.74,0,0,1,1.44.29,2.81,2.81,0,0,1,1.11.79l-.63.66A2,2,0,0,0,43,5.1a2.63,2.63,0,0,0-1.09-.23,2.5,2.5,0,0,0-1.9.81,2.89,2.89,0,0,0-.78,2.06A2.89,2.89,0,0,0,40,9.8a2.53,2.53,0,0,0,1.9.81,2.39,2.39,0,0,0,2.52-2.26H41.9V7.49h3.35C45.27,7.7,45.29,7.87,45.29,8.05Z" transform="translate(0 -1.32)"/><path class="cls-1" d="M48.6,11.36h-1l2.61-7.18h1l2.61,7.18h-1l-.67-1.95h-2.9Zm2.1-6L49.58,8.55h2.29L50.74,5.31Z" transform="translate(0 -1.32)"/><path class="cls-1" d="M55.36,4.18v7.18h-.88V4.18Z" transform="translate(0 -1.32)"/><path class="cls-1" d="M58.49,13.69a2.88,2.88,0,0,1-.74-.1,2.43,2.43,0,0,1-.63-.29,2.25,2.25,0,0,1-.48-.44,1.9,1.9,0,0,1-.31-.58l.83-.36a1.3,1.3,0,0,0,.5.69,1.42,1.42,0,0,0,.83.27,1.49,1.49,0,0,0,1.13-.44A1.78,1.78,0,0,0,60,11.19v-.47h0a1.7,1.7,0,0,1-.68.62,2,2,0,0,1-.93.23,2.06,2.06,0,0,1-1.59-.75A2.79,2.79,0,0,1,56.14,9a2.75,2.75,0,0,1,.65-1.85,2.08,2.08,0,0,1,1.59-.77,2,2,0,0,1,.93.23,2.13,2.13,0,0,1,.68.62h0V6.51h.85V11.2a2.54,2.54,0,0,1-.65,1.85A2.46,2.46,0,0,1,58.49,13.69Zm0-3a1.35,1.35,0,0,0,1.07-.51A1.8,1.8,0,0,0,60,8.87,1.89,1.89,0,0,0,59.6,7.6a1.39,1.39,0,0,0-2.14,0A1.8,1.8,0,0,0,57,8.87a1.92,1.92,0,0,0,.43,1.28A1.3,1.3,0,0,0,58.53,10.67Z" transform="translate(0 -1.32)"/><path class="cls-1" d="M63.09,4.73a.65.65,0,0,1-.18.47.62.62,0,0,1-.89,0,.65.65,0,0,1-.18-.47A.64.64,0,0,1,62,4.27a.62.62,0,0,1,.89,0A.64.64,0,0,1,63.09,4.73Zm-.18,1.7v4.91H62V6.43Z" transform="translate(0 -1.32)"/><path class="cls-1" d="M66.14,11.51a2.2,2.2,0,0,1-1.71-.75,2.67,2.67,0,0,1-.67-1.87A2.74,2.74,0,0,1,64.41,7a2.14,2.14,0,0,1,1.68-.75A2,2,0,0,1,67.75,7a2.9,2.9,0,0,1,.63,2l0,.1H64.65a1.61,1.61,0,0,0,.46,1.15,1.48,1.48,0,0,0,1,.45,1.46,1.46,0,0,0,1.34-.89l.79.4a2.31,2.31,0,0,1-.89,1A2.24,2.24,0,0,1,66.14,11.51ZM64.72,8.3h2.7A1.23,1.23,0,0,0,67,7.45a1.43,1.43,0,0,0-1.83,0A1.75,1.75,0,0,0,64.72,8.3Z" transform="translate(0 -1.32)"/><path class="cls-1" d="M70.09,11.36H69.2V6.45h.85v.81h0a1.42,1.42,0,0,1,.55-.68,1.47,1.47,0,0,1,.84-.27,1.49,1.49,0,0,1,.64.12l-.27.88a2,2,0,0,0-.52-.07,1.08,1.08,0,0,0-.87.42,1.51,1.51,0,0,0-.37,1Z" transform="translate(0 -1.32)"/><path class="cls-1" d="M76.12,10a1.36,1.36,0,0,1-.54,1.08,2.07,2.07,0,0,1-1.35.44,2.09,2.09,0,0,1-2-1.4L73,9.76a1.55,1.55,0,0,0,.5.69,1.09,1.09,0,0,0,.72.25,1.11,1.11,0,0,0,.7-.19.53.53,0,0,0,.28-.44c0-.31-.24-.54-.7-.69l-.81-.22c-.93-.25-1.39-.69-1.39-1.38a1.27,1.27,0,0,1,.52-1.08,2.13,2.13,0,0,1,1.35-.41,2,2,0,0,1,1.12.31,1.63,1.63,0,0,1,.71.83l-.8.35a1,1,0,0,0-.44-.48,1.34,1.34,0,0,0-.69-.18,1.13,1.13,0,0,0-.63.18.51.51,0,0,0-.27.44c0,.29.26.48.76.6l.72.19C75.65,8.76,76.12,9.24,76.12,10Z" transform="translate(0 -1.32)"/><path class="cls-1" d="M30.9,8.05a3.32,3.32,0,0,1-.85,2.4,3.22,3.22,0,0,1-2.54,1.06A3.42,3.42,0,0,1,25,10.43a3.68,3.68,0,0,1-1-2.67,3.79,3.79,0,0,1,1-2.68A3.37,3.37,0,0,1,27.51,4,3.83,3.83,0,0,1,29,4.29a3,3,0,0,1,1.11.79l-.63.66a2,2,0,0,0-.84-.64,2.63,2.63,0,0,0-1.09-.23,2.52,2.52,0,0,0-1.9.81,2.89,2.89,0,0,0-.78,2.06,2.89,2.89,0,0,0,.78,2.06,2.55,2.55,0,0,0,1.9.81,2.47,2.47,0,0,0,1.72-.6A2.44,2.44,0,0,0,30,8.35H27.51V7.49h3.35C30.88,7.7,30.9,7.87,30.9,8.05Z" transform="translate(0 -1.32)"/><path class="cls-1" d="M32,11.36V4.18H34.1a3.28,3.28,0,0,1,2.53,1,3.51,3.51,0,0,1,1,2.6,3.53,3.53,0,0,1-1,2.6,3.39,3.39,0,0,1-2.53,1Zm.89-6.3v5.41H34.1A2.53,2.53,0,0,0,36,9.76a2.71,2.71,0,0,0,.71-2,2.74,2.74,0,0,0-.71-2,2.51,2.51,0,0,0-1.9-.73Z" transform="translate(0 -1.32)"/><path class="cls-1" d="M45.29,8.05a3.32,3.32,0,0,1-.85,2.4,3.22,3.22,0,0,1-2.54,1.06,3.42,3.42,0,0,1-2.55-1.08,3.69,3.69,0,0,1-1-2.67,3.8,3.8,0,0,1,1-2.68A3.36,3.36,0,0,1,41.9,4a3.74,3.74,0,0,1,1.44.29,2.81,2.81,0,0,1,1.11.79l-.63.66A2,2,0,0,0,43,5.1a2.63,2.63,0,0,0-1.09-.23,2.5,2.5,0,0,0-1.9.81,2.89,2.89,0,0,0-.78,2.06A2.89,2.89,0,0,0,40,9.8a2.53,2.53,0,0,0,1.9.81,2.39,2.39,0,0,0,2.52-2.26H41.9V7.49h3.35C45.27,7.7,45.29,7.87,45.29,8.05Z" transform="translate(0 -1.32)"/><path class="cls-1" d="M48.6,11.36h-1l2.61-7.18h1l2.61,7.18h-1l-.67-1.95h-2.9Zm2.1-6L49.58,8.55h2.29L50.74,5.31Z" transform="translate(0 -1.32)"/><path class="cls-1" d="M55.36,4.18v7.18h-.88V4.18Z" transform="translate(0 -1.32)"/><path class="cls-1" d="M58.49,13.69a2.88,2.88,0,0,1-.74-.1,2.43,2.43,0,0,1-.63-.29,2.25,2.25,0,0,1-.48-.44,1.9,1.9,0,0,1-.31-.58l.83-.36a1.3,1.3,0,0,0,.5.69,1.42,1.42,0,0,0,.83.27,1.49,1.49,0,0,0,1.13-.44A1.78,1.78,0,0,0,60,11.19v-.47h0a1.7,1.7,0,0,1-.68.62,2,2,0,0,1-.93.23,2.06,2.06,0,0,1-1.59-.75A2.79,2.79,0,0,1,56.14,9a2.75,2.75,0,0,1,.65-1.85,2.08,2.08,0,0,1,1.59-.77,2,2,0,0,1,.93.23,2.13,2.13,0,0,1,.68.62h0V6.51h.85V11.2a2.54,2.54,0,0,1-.65,1.85A2.46,2.46,0,0,1,58.49,13.69Zm0-3a1.35,1.35,0,0,0,1.07-.51A1.8,1.8,0,0,0,60,8.87,1.89,1.89,0,0,0,59.6,7.6a1.39,1.39,0,0,0-2.14,0A1.8,1.8,0,0,0,57,8.87a1.92,1.92,0,0,0,.43,1.28A1.3,1.3,0,0,0,58.53,10.67Z" transform="translate(0 -1.32)"/><path class="cls-1" d="M63.09,4.73a.65.65,0,0,1-.18.47.62.62,0,0,1-.89,0,.65.65,0,0,1-.18-.47A.64.64,0,0,1,62,4.27a.62.62,0,0,1,.89,0A.64.64,0,0,1,63.09,4.73Zm-.18,1.7v4.91H62V6.43Z" transform="translate(0 -1.32)"/><path class="cls-1" d="M66.14,11.51a2.2,2.2,0,0,1-1.71-.75,2.67,2.67,0,0,1-.67-1.87A2.74,2.74,0,0,1,64.41,7a2.14,2.14,0,0,1,1.68-.75A2,2,0,0,1,67.75,7a2.9,2.9,0,0,1,.63,2l0,.1H64.65a1.61,1.61,0,0,0,.46,1.15,1.48,1.48,0,0,0,1,.45,1.46,1.46,0,0,0,1.34-.89l.79.4a2.31,2.31,0,0,1-.89,1A2.24,2.24,0,0,1,66.14,11.51ZM64.72,8.3h2.7A1.23,1.23,0,0,0,67,7.45a1.43,1.43,0,0,0-1.83,0A1.75,1.75,0,0,0,64.72,8.3Z" transform="translate(0 -1.32)"/><path class="cls-1" d="M70.09,11.36H69.2V6.45h.85v.81h0a1.42,1.42,0,0,1,.55-.68,1.47,1.47,0,0,1,.84-.27,1.49,1.49,0,0,1,.64.12l-.27.88a2,2,0,0,0-.52-.07,1.08,1.08,0,0,0-.87.42,1.51,1.51,0,0,0-.37,1Z" transform="translate(0 -1.32)"/><path class="cls-1" d="M76.12,10a1.36,1.36,0,0,1-.54,1.08,2.07,2.07,0,0,1-1.35.44,2.09,2.09,0,0,1-2-1.4L73,9.76a1.55,1.55,0,0,0,.5.69,1.09,1.09,0,0,0,.72.25,1.11,1.11,0,0,0,.7-.19.53.53,0,0,0,.28-.44c0-.31-.24-.54-.7-.69l-.81-.22c-.93-.25-1.39-.69-1.39-1.38a1.27,1.27,0,0,1,.52-1.08,2.13,2.13,0,0,1,1.35-.41,2,2,0,0,1,1.12.31,1.63,1.63,0,0,1,.71.83l-.8.35a1,1,0,0,0-.44-.48,1.34,1.34,0,0,0-.69-.18,1.13,1.13,0,0,0-.63.18.51.51,0,0,0-.27.44c0,.29.26.48.76.6l.72.19C75.65,8.76,76.12,9.24,76.12,10Z" transform="translate(0 -1.32)"/><path class="cls-2" d="M6.38,3,.83,6.29A1.69,1.69,0,0,0,.25,8.55a1.54,1.54,0,0,0,2.17.59L8,5.81a1.69,1.69,0,0,0,.57-2.25A1.54,1.54,0,0,0,6.38,3Z" transform="translate(0 -1.32)"/><path class="cls-3" d="M7.93,9.66,2.38,6.33a1.54,1.54,0,0,0-2.16.6A1.66,1.66,0,0,0,.79,9.18l5.55,3.33a1.53,1.53,0,0,0,2.16-.59A1.68,1.68,0,0,0,7.93,9.66Z" transform="translate(0 -1.32)"/><path class="cls-4" d="M11.63,9.72l5.54-3.33a1.55,1.55,0,0,1,2.17.6,1.68,1.68,0,0,1-.57,2.25l-5.55,3.33A1.55,1.55,0,0,1,11.05,12,1.69,1.69,0,0,1,11.63,9.72Z" transform="translate(0 -1.32)"/><path class="cls-5" d="M13.27,3l5.55,3.33A1.68,1.68,0,0,1,19.4,8.6a1.55,1.55,0,0,1-2.17.6L11.68,5.87a1.69,1.69,0,0,1-.57-2.25A1.54,1.54,0,0,1,13.27,3Z" transform="translate(0 -1.32)"/><path class="cls-1" d="M95.79,13.81H92.22A9.79,9.79,0,0,1,87.55,9a.24.24,0,0,0,0-.12A37.45,37.45,0,0,1,87.36,2a.28.28,0,0,0-.26-.31.27.27,0,0,0-.29.27,42.85,42.85,0,0,0,0,5.32A18.47,18.47,0,0,1,86.2,5s0,0,0,0a28.42,28.42,0,0,1,.48-3.33.29.29,0,0,0-.22-.34.29.29,0,0,0-.34.23q-.24,1.22-.39,2.37a.32.32,0,0,0-.12.11,2,2,0,0,0-.84,0,.2.2,0,0,0-.09-.13,18.19,18.19,0,0,0-.5-2.37.26.26,0,0,0-.35-.19.27.27,0,0,0-.18.36,17.92,17.92,0,0,1,.57,3.2V5a10.94,10.94,0,0,1-.76,3.26A50.62,50.62,0,0,0,83.59,2a.29.29,0,1,0-.58,0,41.13,41.13,0,0,1-.33,7.62v.06a12.59,12.59,0,0,1-4.34,4.12H75.28a.25.25,0,0,0-.24.25.25.25,0,0,0,.24.25H95.76a.25.25,0,0,0,.24-.25C96,13.9,95.92,13.81,95.79,13.81ZM85.6,8.18c0,.52.11,1,.19,1.5a8.68,8.68,0,0,1-.33-1C85.51,8.53,85.55,8.36,85.6,8.18Zm-.81-3.33a.36.36,0,0,0,0,.15.44.44,0,0,0,0,.16h.74a15.66,15.66,0,0,1-.37,2.48,13.61,13.61,0,0,1-.34-2.06c0-.13,0-.27,0-.4V5A.28.28,0,0,1,84.79,4.85Zm-.07,3.33a4.42,4.42,0,0,0,.14.52c-.13.44-.29.89-.46,1.33A17,17,0,0,0,84.72,8.18Zm-2.2,5.63H79.43a11.79,11.79,0,0,0,4.75-5.92A19,19,0,0,1,82.52,13.81Zm2.57,0c0-.27,0-.56.09-.85,0,.29,0,.58.09.85Zm2,0H85.53A37.63,37.63,0,0,1,85.31,10V8.74a.14.14,0,0,0-.13-.15c-.08,0-.13.05-.13.15V10a37.31,37.31,0,0,1-.22,3.79H83.14c.06-.13,1.45-2.6,1.89-3.79V8.74a.15.15,0,1,1,.3,0V10C85.73,11.17,87.14,13.77,87.14,13.81Zm.68,0h0c-.07-.12-.12-.26-.2-.37A14.63,14.63,0,0,1,86.12,7,11.68,11.68,0,0,0,91,13.81Z" transform="translate(0 -1.32)"/></svg>
