<svg width="209" height="214" viewBox="0 0 209 214" fill="none" xmlns="http://www.w3.org/2000/svg">
<g filter="url(#filter0_d_1174_35)">
<path d="M187.109 110.569C187.109 122.131 184.496 133.544 179.467 143.955C174.438 154.367 167.121 163.507 158.064 170.694C149.006 177.881 138.442 182.929 127.16 185.461C115.879 187.992 104.171 187.943 92.9107 185.315" stroke-width="1.5"/>
</g>
<g filter="url(#filter1_dddd_1174_35)">
<rect x="31" y="26.6694" width="147" height="147" rx="73.5" fill="white"/>
</g>
<g filter="url(#filter2_d_1174_35)">
<path d="M15.9795 100.64C15.9795 87.7606 18.8894 75.0472 24.4918 63.4496C30.0943 51.8521 38.2446 41.6702 48.3339 33.6643C58.4233 25.6584 70.191 20.0353 82.7583 17.2152C95.3256 14.395 108.368 14.4505 120.91 17.3776" stroke-width="1.5"/>
</g>
<path fill-rule="evenodd" clip-rule="evenodd" d="M98.4207 63.0855L87.7917 69.215C86.339 70.0653 85.843 71.9077 86.6933 73.3603C87.5437 74.813 89.386 75.309 90.8387 74.4587L101.468 68.3292C102.92 67.4789 103.416 65.6365 102.566 64.1839C101.751 62.7312 99.8734 62.2352 98.4207 63.0855Z" fill="#EA4334"/>
<path fill-rule="evenodd" clip-rule="evenodd" d="M101.396 75.4152L90.7674 69.2857C89.3147 68.4354 87.4369 68.9314 86.622 70.3841C85.7717 71.8367 86.2677 73.7145 87.7204 74.5294L98.3495 80.6589C99.8021 81.5092 101.68 81.0132 102.495 79.5605C103.345 78.1079 102.849 76.2301 101.396 75.4152Z" fill="#4285F4"/>
<path fill-rule="evenodd" clip-rule="evenodd" d="M108.482 75.5215L119.111 69.3921C120.564 68.5417 122.442 69.0378 123.257 70.4904C124.107 71.943 123.611 73.8208 122.158 74.6357L111.529 80.7652C110.076 81.6155 108.199 81.1195 107.384 79.6668C106.533 78.2142 107.029 76.3364 108.482 75.5215Z" fill="#FCBC05"/>
<path fill-rule="evenodd" clip-rule="evenodd" d="M111.636 63.1916L122.265 69.3211C123.717 70.1714 124.213 72.0138 123.363 73.4664C122.513 74.919 120.67 75.4151 119.218 74.5647L108.589 68.4353C107.136 67.585 106.64 65.7426 107.49 64.29C108.305 62.8373 110.183 62.3413 111.636 63.1916Z" fill="#0D9D58"/>
<path d="M68.3572 96.6215C68.3572 98.4639 67.8258 99.952 66.7274 101.05C65.4874 102.361 63.893 102.999 61.8735 102.999C59.9602 102.999 58.3304 102.326 56.9841 101.015C55.6377 99.6685 55 98.0387 55 96.0901C55 94.1414 55.6732 92.5116 56.9841 91.1652C58.3304 89.8189 59.9248 89.1812 61.8735 89.1812C62.8301 89.1812 63.7513 89.3583 64.637 89.7126C65.4874 90.0669 66.196 90.5275 66.7628 91.1652L65.5582 92.3699C65.1685 91.8739 64.637 91.4841 63.9639 91.2007C63.3261 90.9172 62.6175 90.7755 61.8735 90.7755C60.4208 90.7755 59.2162 91.2715 58.2242 92.2636C57.2321 93.2911 56.7361 94.5311 56.7361 96.0546C56.7361 97.5781 57.2321 98.8182 58.2242 99.8457C59.2162 100.838 60.4563 101.334 61.8735 101.334C63.1844 101.334 64.2827 100.979 65.1685 100.235C66.0542 99.4914 66.5503 98.4639 66.692 97.1884H61.8735V95.594H68.2864C68.3218 95.9838 68.3572 96.3026 68.3572 96.6215Z" fill="#676C72"/>
<path d="M70.4473 102.716V89.5001H74.4863C76.5058 89.5001 78.1356 90.1024 79.3403 91.3425C80.5803 92.5471 81.1826 94.1415 81.1826 96.1256C81.1826 98.1097 80.5803 99.704 79.3403 100.909C78.1002 102.113 76.5058 102.716 74.4863 102.716H70.4473ZM72.1479 91.1299V101.086H74.4863C76.0098 101.086 77.2499 100.661 78.1356 99.7749C79.0214 98.8891 79.482 97.6845 79.482 96.1256C79.482 94.5667 79.0214 93.362 78.1356 92.4763C77.2499 91.5905 76.0452 91.1299 74.4863 91.1299H72.1479Z" fill="#676C72"/>
<path d="M95.9217 96.6215C95.9217 98.4639 95.3902 99.952 94.2919 101.05C93.0518 102.361 91.4574 102.999 89.4379 102.999C87.5247 102.999 85.8949 102.326 84.5485 101.015C83.2022 99.6685 82.5645 98.0387 82.5645 96.0901C82.5645 94.1414 83.2376 92.5116 84.5485 91.1652C85.8949 89.8189 87.4893 89.1812 89.4379 89.1812C90.3945 89.1812 91.3157 89.3583 92.2015 89.7126C93.0518 90.0669 93.7604 90.5275 94.3273 91.1652L93.1227 92.3699C92.7329 91.8739 92.2015 91.4841 91.5283 91.2007C90.8906 90.9172 90.182 90.7755 89.4379 90.7755C87.9853 90.7755 86.7806 91.2715 85.7886 92.2636C84.7966 93.2911 84.3005 94.5311 84.3005 96.0546C84.3005 97.5781 84.7966 98.8182 85.7886 99.8457C86.7806 100.838 88.0207 101.334 89.4379 101.334C90.7488 101.334 91.8472 100.979 92.7329 100.235C93.6187 99.4914 94.1147 98.4639 94.2564 97.1884H89.4379V95.594H95.8508C95.8862 95.9838 95.9217 96.3026 95.9217 96.6215Z" fill="#676C72"/>
<path d="M102.265 102.716H100.387L105.382 89.5001H107.296L112.291 102.716H110.413L109.138 99.1372H103.575L102.265 102.716ZM106.304 91.5905L104.142 97.5428H108.536L106.374 91.5905H106.304Z" fill="#676C72"/>
<path d="M115.231 89.5001V102.716H113.53V89.5001H115.231Z" fill="#676C72"/>
<path d="M121.219 107.003C120.723 107.003 120.227 106.932 119.802 106.825C119.342 106.684 118.952 106.506 118.598 106.294C118.243 106.046 117.924 105.798 117.676 105.479C117.428 105.16 117.216 104.806 117.074 104.416L118.668 103.743C118.846 104.274 119.164 104.7 119.625 105.018C120.086 105.337 120.617 105.514 121.219 105.514C122.141 105.514 122.849 105.231 123.381 104.7C123.912 104.133 124.16 103.389 124.16 102.397V101.546H124.089C123.77 102.042 123.345 102.397 122.778 102.68C122.247 102.963 121.645 103.105 121.007 103.105C119.838 103.105 118.81 102.645 117.96 101.723C117.109 100.767 116.72 99.633 116.72 98.2867C116.72 96.9403 117.145 95.8065 117.96 94.8854C118.81 93.9642 119.838 93.4681 121.007 93.4681C121.645 93.4681 122.247 93.6099 122.778 93.8933C123.31 94.1767 123.77 94.5665 124.089 95.0271H124.16V93.787H125.79V102.432C125.79 103.885 125.365 105.018 124.55 105.833C123.699 106.577 122.601 107.003 121.219 107.003ZM121.29 101.44C122.141 101.44 122.814 101.121 123.345 100.519C123.912 99.9165 124.16 99.137 124.16 98.1449C124.16 97.1883 123.877 96.4088 123.345 95.8065C122.814 95.2042 122.105 94.8854 121.29 94.8854C120.475 94.8854 119.802 95.2042 119.235 95.8065C118.668 96.4088 118.42 97.1883 118.42 98.1449C118.42 99.1016 118.704 99.881 119.235 100.483C119.802 101.157 120.475 101.44 121.29 101.44Z" fill="#676C72"/>
<path d="M130.041 90.5273C130.041 90.8461 129.935 91.1296 129.687 91.3776C129.439 91.6256 129.155 91.7319 128.836 91.7319C128.518 91.7319 128.234 91.6256 127.986 91.3776C127.738 91.1296 127.632 90.8461 127.632 90.5273C127.632 90.2084 127.738 89.9249 127.986 89.6769C128.234 89.4289 128.518 89.3226 128.836 89.3226C129.155 89.3226 129.439 89.4289 129.687 89.6769C129.935 89.9249 130.041 90.2084 130.041 90.5273ZM129.687 93.6451V102.68H127.986V93.6451H129.687Z" fill="#676C72"/>
<path d="M135.887 102.999C134.541 102.999 133.478 102.538 132.592 101.617C131.742 100.696 131.316 99.5621 131.316 98.1803C131.316 96.7986 131.742 95.6648 132.556 94.7436C133.407 93.8224 134.47 93.3618 135.781 93.3618C137.127 93.3618 138.19 93.787 138.969 94.6727C139.749 95.5231 140.174 96.7631 140.174 98.3221L140.139 98.4992H133.017C133.052 99.385 133.336 100.094 133.903 100.625C134.47 101.156 135.143 101.44 135.922 101.44C137.021 101.44 137.871 100.908 138.473 99.8101L139.997 100.554C139.607 101.334 139.04 101.901 138.296 102.361C137.623 102.786 136.808 102.999 135.887 102.999ZM133.159 97.082H138.332C138.296 96.4442 138.013 95.9482 137.552 95.5231C137.092 95.0979 136.489 94.9207 135.71 94.9207C135.072 94.9207 134.505 95.1333 134.045 95.5231C133.619 95.9128 133.336 96.4442 133.159 97.082Z" fill="#676C72"/>
<path d="M143.434 102.715H141.733V93.6807H143.363V95.1688H143.434C143.611 94.6728 143.966 94.2831 144.497 93.9288C145.028 93.5745 145.56 93.4327 146.091 93.4327C146.587 93.4327 147.013 93.5036 147.331 93.6453L146.8 95.2751C146.587 95.2042 146.268 95.1334 145.808 95.1334C145.17 95.1334 144.603 95.3814 144.143 95.9129C143.682 96.4443 143.434 97.0466 143.434 97.7198V102.715Z" fill="#676C72"/>
<path d="M154.984 100.2C154.984 100.979 154.63 101.652 153.956 102.184C153.283 102.715 152.397 102.999 151.37 102.999C150.449 102.999 149.669 102.751 148.961 102.29C148.288 101.83 147.792 101.192 147.473 100.412L148.996 99.7747C149.209 100.306 149.528 100.731 149.953 101.05C150.378 101.369 150.839 101.511 151.335 101.511C151.866 101.511 152.327 101.404 152.681 101.156C153.035 100.908 153.212 100.66 153.212 100.342C153.212 99.7747 152.752 99.3495 151.866 99.0661L150.307 98.6763C148.536 98.2157 147.65 97.4008 147.65 96.1254C147.65 95.3105 147.969 94.6373 148.642 94.1413C149.315 93.6452 150.165 93.3972 151.228 93.3972C152.043 93.3972 152.752 93.5744 153.39 93.9641C154.027 94.3538 154.488 94.8499 154.736 95.4876L153.212 96.1254C153.035 95.7356 152.752 95.4522 152.362 95.2396C151.972 95.027 151.547 94.9207 151.051 94.9207C150.591 94.9207 150.201 95.027 149.846 95.2396C149.492 95.4522 149.315 95.7356 149.315 96.0545C149.315 96.5859 149.811 96.9402 150.768 97.1528L152.149 97.5071C154.098 97.9323 154.984 98.8181 154.984 100.2Z" fill="#676C72"/>
<path d="M124.672 137.975H117.834C113.972 136.274 110.996 133.334 108.87 129.188C108.905 129.118 108.905 129.047 108.87 128.976C108.374 125.256 108.232 120.756 108.516 116.327C108.551 116.044 108.303 115.76 108.019 115.76C107.736 115.725 107.453 115.973 107.453 116.256C107.24 119.587 107.275 122.988 107.488 126.035C107.027 124.724 106.602 123.342 106.283 121.854C106.283 121.819 106.283 121.783 106.248 121.783C106.425 119.835 106.709 117.78 107.169 115.654C107.24 115.371 107.027 115.087 106.744 115.016C106.461 114.945 106.177 115.158 106.106 115.441C105.787 116.93 105.539 118.382 105.362 119.799C105.256 119.835 105.185 119.941 105.114 120.012C104.583 119.906 104.051 119.906 103.52 120.012C103.484 119.906 103.449 119.835 103.343 119.764C103.13 118.311 102.811 116.859 102.386 115.406C102.315 115.123 101.996 114.945 101.713 115.052C101.429 115.123 101.252 115.441 101.359 115.725C101.925 117.674 102.28 119.658 102.457 121.606C102.457 121.642 102.457 121.677 102.457 121.713C102.457 121.713 102.457 121.713 102.457 121.748C102.457 121.783 102.457 121.819 102.457 121.819C102.28 123.945 101.784 125.929 101.004 127.807C101.323 124.582 101.429 120.721 101.288 116.327C101.288 116.044 101.04 115.796 100.721 115.796C100.437 115.796 100.189 116.044 100.189 116.363C100.367 122.031 100.154 126.744 99.5517 130.393C99.5517 130.428 99.5517 130.464 99.5517 130.499C97.6738 133.44 94.8749 135.956 91.2255 138.081H85.3795C85.1315 138.081 84.9189 138.294 84.9189 138.542C84.9189 138.79 85.1315 139.003 85.3795 139.003H89.5603H91.8278H98.7722H98.8785H99.9768H100.083H100.615H103.449H103.98H104.512H105.043H107.807H108.338H108.516H108.586H109.685H109.791H117.09H120.207H124.601C124.849 139.003 125.061 138.79 125.061 138.542C125.097 138.152 124.92 137.975 124.672 137.975ZM105.15 127.629C105.22 128.586 105.362 129.507 105.504 130.393C105.256 129.791 105.043 129.188 104.866 128.586C104.972 128.267 105.043 127.948 105.15 127.629ZM103.591 121.5C103.591 121.606 103.591 121.677 103.626 121.783C103.626 121.89 103.626 121.961 103.662 122.067H105.079C104.972 123.555 104.76 125.078 104.37 126.637C104.051 125.362 103.839 124.086 103.732 122.846C103.697 122.598 103.697 122.35 103.662 122.102C103.662 121.996 103.662 121.925 103.662 121.819C103.591 121.677 103.591 121.606 103.591 121.5ZM103.449 127.629C103.52 127.948 103.626 128.267 103.732 128.586C103.484 129.401 103.166 130.216 102.847 131.031C103.13 129.897 103.307 128.763 103.449 127.629ZM99.2328 137.975H93.3159C97.8156 135.034 100.863 131.42 102.421 127.098C102.032 130.712 100.969 134.326 99.2328 137.975ZM104.158 137.975C104.228 137.479 104.264 136.948 104.335 136.416C104.37 136.948 104.441 137.479 104.512 137.975H104.158ZM108.09 137.975H107.842H105.008C104.76 135.92 104.618 133.617 104.583 131.031V130.995C104.583 130.818 104.583 130.606 104.583 130.428C104.583 130.145 104.583 129.826 104.583 129.543C104.583 129.259 104.583 128.976 104.583 128.657C104.583 128.515 104.476 128.373 104.335 128.373C104.193 128.373 104.087 128.48 104.087 128.657C104.087 128.976 104.087 129.259 104.087 129.578C104.087 129.862 104.087 130.145 104.087 130.428C104.087 130.606 104.087 130.818 104.087 130.995V131.031C104.051 133.653 103.91 135.956 103.662 138.011H100.756H100.544H100.437C100.544 137.763 103.201 133.227 104.051 131.031C104.051 130.854 104.051 130.641 104.051 130.428C104.051 130.145 104.051 129.826 104.051 129.543C104.051 129.259 104.051 128.976 104.051 128.657C104.051 128.515 104.158 128.373 104.335 128.373C104.476 128.373 104.618 128.48 104.618 128.657C104.618 128.94 104.618 129.224 104.618 129.507C104.618 129.826 104.618 130.145 104.618 130.428C104.618 130.641 104.618 130.854 104.618 131.031C105.398 133.121 108.09 137.904 108.09 137.975ZM109.401 137.975H109.366C109.224 137.763 109.118 137.514 108.976 137.302C107.134 133.83 106.213 129.862 106.142 125.362C108.019 131.208 111.173 135.46 115.495 137.975H109.401Z" fill="#676C72"/>
<defs>
<filter id="filter0_d_1174_35" x="77.7402" y="97.0687" width="131.118" height="113.505" filterUnits="userSpaceOnUse" color-interpolation-filters="sRGB">
<feFlood flood-opacity="0" result="BackgroundImageFix"/>
<feColorMatrix in="SourceAlpha" type="matrix" values="0 0 0 0 0 0 0 0 0 0 0 0 0 0 0 0 0 0 127 0" result="hardAlpha"/>
<feOffset dx="3" dy="4.5"/>
<feGaussianBlur stdDeviation="9"/>
<feComposite in2="hardAlpha" operator="out"/>
<feColorMatrix type="matrix" values="0 0 0 0 1 0 0 0 0 1 0 0 0 0 1 0 0 0 0.56 0"/>
<feBlend mode="normal" in2="BackgroundImageFix" result="effect1_dropShadow_1174_35"/>
<feBlend mode="normal" in="SourceGraphic" in2="effect1_dropShadow_1174_35" result="shape"/>
</filter>
<filter id="filter1_dddd_1174_35" x="26" y="24.6694" width="176" height="189" filterUnits="userSpaceOnUse" color-interpolation-filters="sRGB">
<feFlood flood-opacity="0" result="BackgroundImageFix"/>
<feColorMatrix in="SourceAlpha" type="matrix" values="0 0 0 0 0 0 0 0 0 0 0 0 0 0 0 0 0 0 127 0" result="hardAlpha"/>
<feOffset dx="1" dy="2"/>
<feGaussianBlur stdDeviation="2"/>
<feColorMatrix type="matrix" values="0 0 0 0 0 0 0 0 0 0 0 0 0 0 0 0 0 0 0.05 0"/>
<feBlend mode="normal" in2="BackgroundImageFix" result="effect1_dropShadow_1174_35"/>
<feColorMatrix in="SourceAlpha" type="matrix" values="0 0 0 0 0 0 0 0 0 0 0 0 0 0 0 0 0 0 127 0" result="hardAlpha"/>
<feOffset dx="3" dy="7"/>
<feGaussianBlur stdDeviation="4"/>
<feColorMatrix type="matrix" values="0 0 0 0 0 0 0 0 0 0 0 0 0 0 0 0 0 0 0.04 0"/>
<feBlend mode="normal" in2="effect1_dropShadow_1174_35" result="effect2_dropShadow_1174_35"/>
<feColorMatrix in="SourceAlpha" type="matrix" values="0 0 0 0 0 0 0 0 0 0 0 0 0 0 0 0 0 0 127 0" result="hardAlpha"/>
<feOffset dx="7" dy="16"/>
<feGaussianBlur stdDeviation="5"/>
<feColorMatrix type="matrix" values="0 0 0 0 0 0 0 0 0 0 0 0 0 0 0 0 0 0 0.03 0"/>
<feBlend mode="normal" in2="effect2_dropShadow_1174_35" result="effect3_dropShadow_1174_35"/>
<feColorMatrix in="SourceAlpha" type="matrix" values="0 0 0 0 0 0 0 0 0 0 0 0 0 0 0 0 0 0 127 0" result="hardAlpha"/>
<feOffset dx="12" dy="28"/>
<feGaussianBlur stdDeviation="6"/>
<feColorMatrix type="matrix" values="0 0 0 0 0 0 0 0 0 0 0 0 0 0 0 0 0 0 0.01 0"/>
<feBlend mode="normal" in2="effect3_dropShadow_1174_35" result="effect4_dropShadow_1174_35"/>
<feBlend mode="normal" in="SourceGraphic" in2="effect4_dropShadow_1174_35" result="shape"/>
</filter>
<filter id="filter2_d_1174_35" x="0.229492" y="0.890381" width="141.852" height="122.25" filterUnits="userSpaceOnUse" color-interpolation-filters="sRGB">
<feFlood flood-opacity="0" result="BackgroundImageFix"/>
<feColorMatrix in="SourceAlpha" type="matrix" values="0 0 0 0 0 0 0 0 0 0 0 0 0 0 0 0 0 0 127 0" result="hardAlpha"/>
<feOffset dx="3" dy="4.5"/>
<feGaussianBlur stdDeviation="9"/>
<feComposite in2="hardAlpha" operator="out"/>
<feColorMatrix type="matrix" values="0 0 0 0 1 0 0 0 0 1 0 0 0 0 1 0 0 0 0.56 0"/>
<feBlend mode="normal" in2="BackgroundImageFix" result="effect1_dropShadow_1174_35"/>
<feBlend mode="normal" in="SourceGraphic" in2="effect1_dropShadow_1174_35" result="shape"/>
</filter>
</defs>
</svg>